<mxfile host="b83b2fee-cec0-405d-9b0a-652280bd6642" modified="2020-07-30T13:46:49.951Z" agent="5.0 (Windows NT 10.0; Win64; x64) AppleWebKit/537.36 (KHTML, like Gecko) Code/1.47.3 Chrome/78.0.3904.130 Electron/7.3.2 Safari/537.36" etag="MXuxKpiQd0SNaEcUE6Cv" version="13.1.3">
    <diagram id="6hGFLwfOUW9BJ-s0fimq" name="Page-1">
        <mxGraphModel dx="2341" dy="2696" grid="1" gridSize="10" guides="1" tooltips="1" connect="1" arrows="1" fold="1" page="1" pageScale="1" pageWidth="827" pageHeight="1169" math="0" shadow="0">
            <root>
                <mxCell id="0"/>
                <mxCell id="1" parent="0"/>
                <mxCell id="4" value="Help" style="text;html=1;align=center;verticalAlign=middle;whiteSpace=wrap;rounded=0;fontColor=#FFFFFF;" parent="1" vertex="1">
                    <mxGeometry x="-380" y="-1154" width="60" height="30" as="geometry"/>
                </mxCell>
                <mxCell id="8" value="" style="rounded=0;whiteSpace=wrap;html=1;" parent="1" vertex="1">
                    <mxGeometry x="-830" y="-1169" width="650" height="779" as="geometry"/>
                </mxCell>
                <mxCell id="2" value="" style="rounded=0;whiteSpace=wrap;html=1;" parent="1" vertex="1">
                    <mxGeometry x="-800" y="-2130" width="647" height="60" as="geometry"/>
                </mxCell>
                <mxCell id="3" value="" style="ellipse;whiteSpace=wrap;html=1;aspect=fixed;fillColor=#1A1A1A;" parent="1" vertex="1">
                    <mxGeometry x="-810" y="-1163.5" width="49" height="49" as="geometry"/>
                </mxCell>
                <mxCell id="17" value="Seminar" style="text;html=1;strokeColor=#3700CC;fillColor=#6a00ff;align=center;verticalAlign=middle;whiteSpace=wrap;rounded=0;fontColor=#ffffff;" parent="1" vertex="1">
                    <mxGeometry x="-740" y="-1145.5" width="60" height="25.5" as="geometry"/>
                </mxCell>
                <mxCell id="18" value="Mühazirə" style="text;html=1;strokeColor=#3700CC;fillColor=#6a00ff;align=center;verticalAlign=middle;whiteSpace=wrap;rounded=0;fontColor=#ffffff;" parent="1" vertex="1">
                    <mxGeometry x="-670" y="-1144" width="60" height="24" as="geometry"/>
                </mxCell>
                <mxCell id="19" value="Vəsaitlər" style="text;html=1;strokeColor=#3700CC;fillColor=#6a00ff;align=center;verticalAlign=middle;whiteSpace=wrap;rounded=0;fontColor=#ffffff;" parent="1" vertex="1">
                    <mxGeometry x="-600" y="-1144" width="60" height="24" as="geometry"/>
                </mxCell>
                <mxCell id="40" value="Tapşırıqlar" style="text;html=1;strokeColor=#A50040;fillColor=#d80073;align=center;verticalAlign=middle;whiteSpace=wrap;rounded=0;fontColor=#ffffff;" parent="1" vertex="1">
                    <mxGeometry x="-530" y="-1144" width="60" height="24" as="geometry"/>
                </mxCell>
                <mxCell id="41" value="Jurnal" style="text;html=1;strokeColor=#3700CC;fillColor=#6a00ff;align=center;verticalAlign=middle;whiteSpace=wrap;rounded=0;fontColor=#ffffff;" parent="1" vertex="1">
                    <mxGeometry x="-461.5" y="-1144" width="50" height="24" as="geometry"/>
                </mxCell>
                <mxCell id="44" value="QURUP" style="text;html=1;strokeColor=#3700CC;fillColor=#6a00ff;align=center;verticalAlign=middle;whiteSpace=wrap;rounded=0;fontColor=#ffffff;" parent="1" vertex="1">
                    <mxGeometry x="-250" y="-1145.5" width="50" height="24" as="geometry"/>
                </mxCell>
                <mxCell id="60" value="" style="rounded=0;whiteSpace=wrap;html=1;align=center;fillColor=#6166A2;strokeColor=#3700CC;fontColor=#ffffff;" vertex="1" parent="1">
                    <mxGeometry x="-830" y="-1107" width="650" height="30" as="geometry"/>
                </mxCell>
                <mxCell id="72" value="&lt;b&gt;Endir&lt;/b&gt;" style="text;html=1;strokeColor=none;fillColor=none;align=center;verticalAlign=middle;whiteSpace=wrap;rounded=0;" vertex="1" parent="1">
                    <mxGeometry x="-581" y="-1103" width="40" height="20" as="geometry"/>
                </mxCell>
                <mxCell id="73" value="Papqa yarat" style="text;html=1;strokeColor=none;fillColor=none;align=center;verticalAlign=middle;whiteSpace=wrap;rounded=0;fontStyle=1" vertex="1" parent="1">
                    <mxGeometry x="-735" y="-1103" width="50" height="20" as="geometry"/>
                </mxCell>
                <mxCell id="75" value="" style="shape=singleArrow;direction=south;whiteSpace=wrap;html=1;strokeWidth=2;fillColor=#d80073;align=center;strokeColor=#A50040;fontColor=#ffffff;" vertex="1" parent="1">
                    <mxGeometry x="-601" y="-1103" width="10" height="16" as="geometry"/>
                </mxCell>
                <mxCell id="76" value="" style="shape=cross;whiteSpace=wrap;html=1;strokeWidth=2;fillColor=#d80073;align=center;strokeColor=#A50040;fontColor=#ffffff;" vertex="1" parent="1">
                    <mxGeometry x="-755" y="-1101" width="20" height="20" as="geometry"/>
                </mxCell>
                <mxCell id="80" value="" style="line;strokeWidth=4;html=1;perimeter=backbonePerimeter;points=[];outlineConnect=0;fillColor=#d80073;align=center;strokeColor=#A50040;fontColor=#ffffff;" vertex="1" parent="1">
                    <mxGeometry x="-606" y="-1087" width="20" height="10" as="geometry"/>
                </mxCell>
                <mxCell id="81" value="" style="line;strokeWidth=4;html=1;perimeter=backbonePerimeter;points=[];outlineConnect=0;fillColor=#d80073;align=center;strokeColor=#A50040;fontColor=#ffffff;" vertex="1" parent="1">
                    <mxGeometry x="-470" y="-1107" width="20" height="10" as="geometry"/>
                </mxCell>
                <mxCell id="82" value="" style="shape=singleArrow;direction=north;whiteSpace=wrap;html=1;strokeWidth=2;fillColor=#d80073;align=center;strokeColor=#A50040;fontColor=#ffffff;" vertex="1" parent="1">
                    <mxGeometry x="-465" y="-1098" width="10" height="20" as="geometry"/>
                </mxCell>
                <mxCell id="84" value="&lt;b&gt;Yüklə&lt;/b&gt;" style="text;html=1;strokeColor=none;fillColor=none;align=center;verticalAlign=middle;whiteSpace=wrap;rounded=0;" vertex="1" parent="1">
                    <mxGeometry x="-447" y="-1101" width="40" height="20" as="geometry"/>
                </mxCell>
                <mxCell id="90" value="&lt;h1&gt;Mühazirələr&lt;/h1&gt;&lt;div&gt;&lt;br&gt;&lt;/div&gt;&lt;div&gt;list&lt;/div&gt;&lt;p&gt;1) Lorem ipsum dolor sit amet, consectetur adipisicing elit, sed do eiusmod tempor incididunt ut labore&lt;/p&gt;" style="text;html=1;strokeColor=none;fillColor=none;spacing=5;spacingTop=-20;whiteSpace=wrap;overflow=hidden;rounded=0;align=center;" vertex="1" parent="1">
                    <mxGeometry x="-795.5" y="-1020" width="591" height="120" as="geometry"/>
                </mxCell>
            </root>
        </mxGraphModel>
    </diagram>
</mxfile>